<?xml version="1.0" standalone="no"?>
<!DOCTYPE svg PUBLIC "-//W3C//DTD SVG 20010904//EN"
 "http://www.w3.org/TR/2001/REC-SVG-20010904/DTD/svg10.dtd">
<svg version="1.0" xmlns="http://www.w3.org/2000/svg"
 width="64.000000pt" height="32.000000pt" viewBox="0 0 64.000000 32.000000"
 preserveAspectRatio="xMidYMid meet">

<g transform="translate(0.000000,32.000000) scale(0.100000,-0.100000)"
fill="#000000" stroke="none">
<path d="M0 160 l0 -160 80 0 80 0 0 160 0 160 -80 0 -80 0 0 -160z"/>
<path d="M480 160 l0 -160 80 0 80 0 0 160 0 160 -80 0 -80 0 0 -160z"/>
<path d="M306 264 c-3 -9 -13 -14 -20 -11 -12 5 -13 -2 -9 -31 5 -31 4 -35 -8
-25 -8 6 -25 9 -39 6 -35 -6 -33 -49 3 -75 15 -11 27 -25 27 -31 0 -8 21 -12
60 -12 39 0 60 4 60 12 0 6 12 20 27 31 36 26 38 69 3 75 -14 3 -31 0 -39 -6
-12 -10 -13 -6 -8 25 4 29 3 36 -9 31 -7 -3 -17 2 -20 11 -3 9 -10 16 -14 16
-4 0 -11 -7 -14 -16z"/>
</g>
</svg>
